<?xml version="1.0" encoding="UTF-8" standalone="no"?>
<!-- Generator: Adobe Illustrator 19.2.1, SVG Export Plug-In . SVG Version: 6.00 Build 0)  -->

<svg
   version="1.1"
   id="Layer_1"
   x="0px"
   y="0px"
   viewBox="0 0 141.9 141.9"
   xml:space="preserve"
   sodipodi:docname="alistigo_icon.svg"
   width="141.89999"
   height="141.89999"
   inkscape:export-filename="..\Square - icons\128x128.png"
   inkscape:export-xdpi="86.596199"
   inkscape:export-ydpi="86.596199"
   inkscape:version="1.2.1 (9c6d41e410, 2022-07-14)"
   xmlns:inkscape="http://www.inkscape.org/namespaces/inkscape"
   xmlns:sodipodi="http://sodipodi.sourceforge.net/DTD/sodipodi-0.dtd"
   xmlns="http://www.w3.org/2000/svg"
   xmlns:svg="http://www.w3.org/2000/svg"><defs
   id="defs11" /><sodipodi:namedview
   id="namedview9"
   pagecolor="#ffffff"
   bordercolor="#000000"
   borderopacity="0.25"
   inkscape:showpageshadow="2"
   inkscape:pageopacity="0.0"
   inkscape:pagecheckerboard="0"
   inkscape:deskcolor="#d1d1d1"
   showgrid="false"
   inkscape:zoom="7.613047"
   inkscape:cx="54.183298"
   inkscape:cy="67.515674"
   inkscape:window-width="5160"
   inkscape:window-height="2054"
   inkscape:window-x="3829"
   inkscape:window-y="-11"
   inkscape:window-maximized="1"
   inkscape:current-layer="Layer_1" />
<style
   type="text/css"
   id="style2">
	.st0{fill-rule:evenodd;clip-rule:evenodd;fill:#01CBBD;}
</style>
<path
   class="st0"
   d="M 94.2,18.8 138,94.6 c 8.1,14.1 3.3,32.2 -10.8,40.4 C 114.7,142.2 99,139.2 90,128.6 94.7,112.4 93.1,94.3 84,78.5 74.8,62.5 59.7,52 43,48.1 35.1,34.1 40,16.1 54,8 67.9,-0.2 86.1,4.7 94.2,18.8"
   id="path4" />
<path
   class="st0"
   d="m 3.8,124.7 c 7.8,13.5 25.1,18.2 38.7,10.4 C 56,127.3 60.7,110 52.9,96.4 45,82.8 27.7,78.2 14.2,86 0.6,93.8 -4,111.1 3.8,124.7"
   id="path6" />
</svg>
